<?xml version="1.0" encoding="UTF-8"?>
<svg width="108px" height="32px" viewBox="0 0 108 32" version="1.1" xmlns="http://www.w3.org/2000/svg" xmlns:xlink="http://www.w3.org/1999/xlink">
    <!-- Generator: Sketch 52.5 (67469) - http://www.bohemiancoding.com/sketch -->
    <title>goog</title>
    <desc>Created with Sketch.</desc>
    <defs>
        <linearGradient x1="91.4954814%" y1="4.94615078%" x2="-38.2370848%" y2="71.8787395%" id="linearGradient-1">
            <stop stop-color="#00A0FF" offset="0%"></stop>
            <stop stop-color="#00A1FF" offset="1%"></stop>
            <stop stop-color="#00BEFF" offset="26%"></stop>
            <stop stop-color="#00D2FF" offset="51%"></stop>
            <stop stop-color="#00DFFF" offset="76%"></stop>
            <stop stop-color="#00E3FF" offset="100%"></stop>
        </linearGradient>
        <linearGradient x1="107.684729%" y1="50%" x2="-130.640394%" y2="50%" id="linearGradient-2">
            <stop stop-color="#FFE000" offset="0%"></stop>
            <stop stop-color="#FFBD00" offset="41%"></stop>
            <stop stop-color="#FFA500" offset="78%"></stop>
            <stop stop-color="#FF9C00" offset="100%"></stop>
        </linearGradient>
        <linearGradient x1="86.2709832%" y1="17.871098%" x2="-50.1798561%" y2="194.639567%" id="linearGradient-3">
            <stop stop-color="#FF3A44" offset="0%"></stop>
            <stop stop-color="#C31162" offset="100%"></stop>
        </linearGradient>
        <linearGradient x1="-18.82494%" y1="-54.0297086%" x2="42.0863309%" y2="24.9280028%" id="linearGradient-4">
            <stop stop-color="#32A071" offset="0%"></stop>
            <stop stop-color="#2DA771" offset="7%"></stop>
            <stop stop-color="#15CF74" offset="48%"></stop>
            <stop stop-color="#06E775" offset="80%"></stop>
            <stop stop-color="#00F076" offset="100%"></stop>
        </linearGradient>
    </defs>
    <g id="Symbols" stroke="none" stroke-width="1" fill="none" fill-rule="evenodd">
        <g id="Footer" transform="translate(-1251.000000, -312.000000)">
            <g id="goog" transform="translate(1251.000000, 312.000000)">
                <g id="artwork">
                    <rect id="Rectangle" fill="#000000" x="0" y="0" width="108" height="32" rx="5"></rect>
                    <path d="M104,0.64 C105.855677,0.64 107.36,2.14432324 107.36,4 L107.36,28 C107.36,29.8556768 105.855677,31.36 104,31.36 L4,31.36 C2.14432324,31.36 0.64,29.8556768 0.64,28 L0.64,4 C0.64,2.14432324 2.14432324,0.64 4,0.64 L104,0.64 Z M104,-1.77635684e-15 L4,-1.77635684e-15 C1.790861,-3.55271368e-16 0,1.790861 0,4 L0,28 C0,30.209139 1.790861,32 4,32 L104,32 C106.209139,32 108,30.209139 108,28 L108,4 C108,1.790861 106.209139,-3.55271368e-16 104,-1.77635684e-15 Z" id="Shape" fill="#A6A6A6" fill-rule="nonzero"></path>
                    <path d="M51.776,10.232 C50.1345123,10.2408253 48.8101434,11.5771085 48.8160191,13.2186093 C48.8218947,14.8601102 50.1557959,16.1868782 51.7973047,16.1839523 C53.4388135,16.1810263 54.7679763,14.8495114 54.768,13.208 C54.7789836,12.4126105 54.466757,11.6468056 53.9027721,11.0858367 C53.3387872,10.5248677 52.5713192,10.2167518 51.776,10.232 Z M51.776,15.032 C51.0346077,15.0846186 50.3365468,14.6781491 50.016364,14.0073927 C49.6961812,13.3366362 49.8191174,12.5382671 50.3262554,11.994905 C50.8333934,11.4515429 51.6213978,11.2739041 52.3126163,11.5471223 C53.0038349,11.8203404 53.4574239,12.4887442 53.456,13.232 C53.4710687,13.6909366 53.3020032,14.136845 52.9864521,14.4704276 C52.670901,14.8040102 52.2350654,14.9975686 51.776,15.008 L51.776,15.032 Z M45.264,10.232 C43.6225123,10.2408253 42.2981434,11.5771085 42.3040191,13.2186093 C42.3098947,14.8601102 43.6437959,16.1868782 45.2853047,16.1839523 C46.9268135,16.1810263 48.2559763,14.8495114 48.256,13.208 C48.2669836,12.4126105 47.954757,11.6468056 47.3907721,11.0858367 C46.8267872,10.5248677 46.0593192,10.2167518 45.264,10.232 Z M45.264,15.032 C44.5226077,15.0846186 43.8245468,14.6781491 43.504364,14.0073927 C43.1841812,13.3366362 43.3071174,12.5382671 43.8142554,11.994905 C44.3213934,11.4515429 45.1093978,11.2739041 45.8006163,11.5471223 C46.4918349,11.8203404 46.9454239,12.4887442 46.944,13.232 C46.9590687,13.6909366 46.7900032,14.136845 46.4744521,14.4704276 C46.158901,14.8040102 45.7230654,14.9975686 45.264,15.008 L45.264,15.032 Z M37.52,11.144 L37.52,12.408 L40.536,12.408 C40.5007125,13.005351 40.2572827,13.5714669 39.848,14.008 C39.2397737,14.6350582 38.3928091,14.9726798 37.52,14.936 C35.730171,14.8485872 34.3239024,13.3719623 34.3239024,11.58 C34.3239024,9.78803771 35.730171,8.31141278 37.52,8.224 C38.3660063,8.21055112 39.1829054,8.53270851 39.792,9.12 L40.688,8.232 C39.8368961,7.39322912 38.6826801,6.93442823 37.488,6.96 C35.7915741,6.88939217 34.1929025,7.75419065 33.3236488,9.21269826 C32.4543951,10.6712059 32.4543951,12.4887941 33.3236488,13.9473017 C34.1929025,15.4058094 35.7915741,16.2706078 37.488,16.2 C38.690036,16.2404798 39.8528947,15.769522 40.688,14.904 C41.4208986,14.0990159 41.8111867,13.0400724 41.776,11.952 C41.7820926,11.683846 41.7606469,11.4157748 41.712,11.152 L37.52,11.144 Z M69.2,12.128 C68.8342943,11.0244763 67.8180137,10.2670597 66.656,10.232 C65.8834532,10.2375468 65.1467068,10.5584675 64.6165105,11.1203849 C64.0863142,11.6823024 63.808697,12.4364336 63.848,13.208 C63.8305487,13.9983268 64.1351619,14.7617862 64.6918759,15.3230263 C65.2485899,15.8842664 66.0095578,16.1950514 66.8,16.184 C67.7957561,16.1878785 68.7271037,15.6921612 69.28,14.864 L68.264,14.184 C67.9499577,14.6888425 67.39449,14.9923767 66.8,14.984 C66.1799903,15.0066455 65.6090689,14.6482337 65.36,14.08 L69.36,12.44 L69.2,12.128 Z M65.144,13.12 C65.1063199,12.6795004 65.2525864,12.2430431 65.54809,11.9142006 C65.8435935,11.5853582 66.2619926,11.3934441 66.704,11.384 C67.1654982,11.3539663 67.6002204,11.6028291 67.808,12.016 L65.144,13.12 Z M61.944,16 L63.2,16 L63.2,7.256 L61.912,7.256 L61.944,16 Z M59.808,10.896 L59.76,10.896 C59.3504912,10.4498197 58.7650978,10.2068815 58.16,10.232 C56.5164006,10.232 55.184,11.5644006 55.184,13.208 C55.184,14.8515994 56.5164006,16.184 58.16,16.184 C58.7680583,16.207307 59.3547766,15.9579517 59.76,15.504 L59.808,15.504 L59.808,15.936 C59.8766936,16.3906073 59.7359263,16.851878 59.425109,17.1906688 C59.1142917,17.5294596 58.6668296,17.709359 58.208,17.68 C57.5352272,17.6751375 56.9373672,17.2499215 56.712,16.616 L55.576,17.096 C56.0135434,18.1624347 57.0553228,18.8558988 58.208,18.848 C59.744,18.848 61.04,17.952 61.04,15.752 L61.04,10.4 L59.776,10.4 L59.808,10.896 Z M58.304,15.008 C57.3542335,14.9447174 56.6161998,14.1558724 56.6161998,13.204 C56.6161998,12.2521276 57.3542335,11.4632826 58.304,11.4 C58.7601158,11.4202061 59.1883635,11.6251797 59.4901858,11.9677482 C59.7920082,12.3103166 59.9414072,12.7609719 59.904,13.216 C59.9417778,13.6741004 59.787453,14.1272934 59.4779534,14.4671361 C59.1684538,14.8069789 58.7316271,15.0028934 58.272,15.008 L58.304,15.008 Z M75.36,7.256 L72.232,7.256 L72.232,16 L73.536,16 L73.536,12.688 L75.36,12.688 C76.3655063,12.7425915 77.3188981,12.2371953 77.8380755,11.3743639 C78.3572528,10.5115325 78.3572528,9.43246749 77.8380755,8.56963612 C77.3188981,7.70680475 76.3655063,7.20140854 75.36,7.256 Z M75.36,11.472 L73.504,11.472 L73.504,8.472 L75.36,8.472 C75.9220469,8.43092654 76.4598949,8.70750386 76.7534507,9.1885535 C77.0470065,9.66960313 77.0470065,10.2743969 76.7534507,10.7554465 C76.4598949,11.2364961 75.9220469,11.5130735 75.36,11.472 Z M83.424,10.216 C82.4512603,10.1583001 81.5369323,10.6830175 81.096,11.552 L82.256,12.04 C82.4870184,11.6049146 82.9577109,11.3521938 83.448,11.4 C83.7780475,11.3665226 84.1078428,11.4658294 84.3645293,11.6759821 C84.6212158,11.8861347 84.7836688,12.1898382 84.816,12.52 L84.816,12.608 C84.3959715,12.3890855 83.9296496,12.2738766 83.456,12.272 C82.208,12.272 80.936,12.96 80.936,14.24 C80.9604923,14.7858553 81.2046422,15.2986188 81.6129468,15.6617237 C82.0212515,16.0248285 82.5590196,16.2074238 83.104,16.168 C83.7839477,16.2173402 84.4358346,15.8883218 84.8,15.312 L84.8,16 L86.056,16 L86.056,12.632 C86.072,11.08 84.92,10.216 83.424,10.216 Z M83.264,15.016 C82.84,15.016 82.24,14.8 82.24,14.272 C82.24,13.6 82.984,13.336 83.624,13.336 C84.0323783,13.3192403 84.4379717,13.4102919 84.8,13.6 C84.7056561,14.3840934 84.0533229,14.9820655 83.264,15.008 L83.264,15.016 Z M90.664,10.4 L89.168,14.192 L89.12,14.192 L87.568,10.4 L86.168,10.4 L88.496,15.696 L87.2,18.648 L88.56,18.648 L92.112,10.4 L90.664,10.4 Z M78.912,16 L80.216,16 L80.216,7.256 L78.912,7.256 L78.912,16 Z" id="Shape" fill="#FFFFFF" fill-rule="nonzero"></path>
                    <path d="M8.352,6.032 C8.08837548,6.34369559 7.95386327,6.74437027 7.976,7.152 L7.976,24.848 C7.94877918,25.2563034 8.0839148,25.6588351 8.352,25.968 L8.408,26.032 L18.32,16.12 L18.32,15.88 L8.408,5.976 L8.352,6.032 Z" id="Path" fill="url(#linearGradient-1)"></path>
                    <path d="M21.6,19.424 L18.32,16.12 L18.32,15.88 L21.6,12.576 L21.672,12.624 L25.6,14.848 C26.72,15.48 26.72,16.52 25.6,17.16 L21.688,19.384 L21.6,19.424 Z" id="Path" fill="url(#linearGradient-2)"></path>
                    <path d="M21.696,19.376 L18.32,16 L8.352,25.968 C8.81842606,26.3831767 9.51459198,26.4067185 10.008,26.024 L21.696,19.376" id="Path" fill="url(#linearGradient-3)"></path>
                    <path d="M21.696,12.624 L10.008,5.984 C9.51757166,5.5957772 8.81911818,5.61602223 8.352,6.032 L18.32,16 L21.696,12.624 Z" id="Path" fill="url(#linearGradient-4)"></path>
                    <path d="M21.6,19.304 L10.008,25.904 C9.53452337,26.2613434 8.88147663,26.2613434 8.408,25.904 L8.352,25.96 L8.408,26.024 C8.88147663,26.3813434 9.53452337,26.3813434 10.008,26.024 L21.696,19.376 L21.6,19.304 Z" id="Path" fill="#000000" opacity="0.2"></path>
                    <path d="M8.352,25.856 C8.09503526,25.538688 7.96910554,25.1351404 8,24.728 L8,24.848 C7.97277918,25.2563034 8.1079148,25.6588351 8.376,25.968 L8.432,25.912 L8.352,25.856 Z" id="Path" fill="#000000" opacity="0.12"></path>
                    <path d="M25.6,17.04 L21.6,19.304 L21.672,19.376 L25.6,17.152 C26.0723164,16.9522866 26.3976483,16.5103263 26.448,16 C26.3465665,16.4616802 26.0318093,16.8477032 25.6,17.04 Z" id="Path" fill="#000000" opacity="0.12"></path>
                    <path d="M10.008,6.096 L25.6,14.96 C26.0318093,15.1522968 26.3465665,15.5383198 26.448,16 C26.3976483,15.4896737 26.0723164,15.0477134 25.6,14.848 L10.008,5.984 C8.896,5.344 7.976,5.872 7.976,7.152 L7.976,7.272 C8,5.992 8.896,5.464 10.008,6.096 Z" id="Path" fill="#FFFFFF" opacity="0.25"></path>
                </g>
                <g id="Layer_3" transform="translate(32.000000, 20.800000)" fill="#FFFFFF" stroke="#FFFFFF" stroke-width="0.2">
                    <polygon id="Path" points="1.456 2.28 0.88 2.28 0.88 0.744 1.456 0.744"></polygon>
                    <path d="M2.472,5.6 L2.472,0.744 L4,0.744 C4.66584883,0.711958896 5.31502664,0.958298693 5.792,1.424 C6.68722188,2.42352012 6.68722188,3.93647988 5.792,4.936 C5.31234447,5.3958654 4.66349748,5.63628638 4,5.6 L2.472,5.6 Z M3.096,5 L4,5 C4.48555737,5.03111667 4.9609266,4.85120106 5.3042047,4.50639046 C5.64748281,4.16157987 5.82527919,3.68541394 5.792,3.2 C5.83975434,2.70598237 5.66871502,2.21583767 5.32397363,1.85878408 C4.97923224,1.50173049 4.49538869,1.31360367 4,1.344 L3.096,1.344 L3.096,5 Z" id="Shape" fill-rule="nonzero"></path>
                    <polygon id="Path" points="10.136 1.344 7.92 1.344 7.92 2.888 9.92 2.888 9.92 3.472 7.92 3.472 7.92 5.016 10.136 5.016 10.136 5.6 7.296 5.6 7.296 0.744 10.136 0.744"></polygon>
                    <polygon id="Path" points="11.032 5.6 11.032 0.744 11.792 0.744 14.192 4.536 14.192 4.536 14.192 3.592 14.192 0.744 14.816 0.744 14.816 5.6 14.168 5.6 11.688 1.6 11.688 1.6 11.688 2.544 11.688 5.6"></polygon>
                    <path d="M16.856,5.6 L18.688,0.728 L19.4,0.728 L21.232,5.6 L20.536,5.6 L20.072,4.28 L18.024,4.28 L17.544,5.6 L16.856,5.6 Z M18.232,3.696 L19.832,3.696 L19.032,1.496 L18.232,3.696 Z" id="Shape" fill-rule="nonzero"></path>
                    <polygon id="Path" points="21.864 5.6 21.864 0.744 22.496 0.744 22.496 5.016 24.6 5.016 24.6 5.6"></polygon>
                    <polygon id="Path" points="25.28 5.6 25.28 0.744 25.904 0.744 25.904 5.6"></polygon>
                    <polygon id="Path" points="27.024 5.6 27.024 0.744 27.824 0.744 30.224 4.536 30.224 4.536 30.224 3.592 30.224 0.744 30.848 0.744 30.848 5.6 30.2 5.6 27.72 1.6 27.72 1.6 27.72 2.544 27.72 5.6"></polygon>
                </g>
            </g>
        </g>
    </g>
</svg>